<svg width="21.000000" height="20.000000" viewBox="0 0 21 20" fill="none" xmlns="http://www.w3.org/2000/svg" xmlns:xlink="http://www.w3.org/1999/xlink">
	<desc>
			Created with Pixso.
	</desc>
	<defs/>
	<path id="Union" d="M0.355957 0.324951C0.789551 -0.108398 1.4917 -0.108398 1.9248 0.324951L10.0156 8.41553L18.106 0.324951C18.5396 -0.108398 19.2417 -0.108398 19.6753 0.324951C20.1084 0.758301 20.1084 1.46045 19.6753 1.89404L11.5845 9.98438L19.7061 18.106C20.1396 18.5396 20.1396 19.2417 19.7061 19.6753C19.2729 20.1084 18.5703 20.1084 18.1372 19.6753L10.0156 11.5532L1.89404 19.6753C1.46045 20.1084 0.758301 20.1084 0.324707 19.6753C-0.108398 19.2417 -0.108398 18.5396 0.324707 18.106L8.44678 9.98438L0.355957 1.89404C-0.0771484 1.46045 -0.0771484 0.758301 0.355957 0.324951Z" clip-rule="evenodd" fill="#24D7FF" fill-opacity="1.000000" fill-rule="evenodd"/>
</svg>
