<svg width="145" height="121" viewBox="0 0 145 121" fill="none" xmlns="http://www.w3.org/2000/svg">
<g clip-path="url(#clip0_1255_22181)">
<path d="M136.591 104.412H131.156C132.143 103.192 132.639 101.482 132.639 99.7766C132.639 96.1178 129.921 92.9451 126.465 92.2161C126.465 88.5574 125.722 83.6791 122.761 78.5578C119.796 73.1888 115.596 70.0207 112.388 68.3105V63.1845C112.388 58.0632 108.188 53.9138 103.001 53.9138H83.7364C90.6536 50.0121 95.3446 42.447 95.3446 34.1529C95.3446 21.4665 84.9711 11.2192 72.1282 11.2192C59.2852 11.2192 48.9117 21.4665 48.9117 34.1529C48.9117 42.69 53.6027 50.0075 60.5199 53.9138H41.7466C36.5598 53.9138 32.3599 58.0632 32.3599 63.1845V68.3105C23.7169 73.1888 18.5255 82.4595 18.5255 92.2161C15.0692 92.9497 12.3519 96.1178 12.3519 99.7766C12.3519 101.487 12.8476 103.192 13.8345 104.412H8.39983C3.70883 104.412 0 108.071 0 112.706C0 117.341 3.70416 121 8.39983 121H136.591C141.282 121 144.991 117.341 144.991 112.706C145.239 108.071 141.286 104.412 136.591 104.412ZM129.674 99.7766C129.674 102.216 127.695 104.412 124.978 104.412H112.626V95.1412H124.978C127.695 95.1412 129.674 97.3374 129.674 99.7766ZM120.287 80.2586C122.756 84.651 123.5 89.0433 123.5 92.2114H112.631V71.9646C115.348 73.6748 118.065 76.3569 120.287 80.2586ZM52.6112 34.1529C52.6112 23.1767 61.5021 14.392 72.6193 14.392C83.7364 14.392 92.6273 23.1767 92.6273 34.1529C92.6273 45.1291 83.7364 53.9138 72.6193 53.9138C61.5021 53.9138 52.6112 45.1338 52.6112 34.1529ZM35.5683 63.1798C35.5683 59.7641 38.2856 57.0819 41.7419 57.0819H103.492C106.953 57.0819 109.666 59.7688 109.666 63.1798V104.407H35.5683V63.1798ZM32.6031 71.9646V92.2114H21.7339C21.7339 83.9174 25.9338 76.5999 32.6031 71.9646ZM15.5603 99.7719C15.5603 97.3327 17.5339 95.1366 20.2513 95.1366H32.6031V104.407H20.2513C17.5339 104.407 15.5603 102.211 15.5603 99.7719ZM136.591 118.07H8.64303C5.67784 118.07 3.2084 115.631 3.2084 112.706C3.2084 109.781 5.67784 107.337 8.64303 107.337H136.839C139.804 107.337 142.273 109.776 142.273 112.706C142.273 115.636 139.556 118.07 136.591 118.07Z" fill="#24D7FF"/>
<path d="M72.6193 90.506C78.545 90.506 83.4885 85.6277 83.4885 79.7728C83.4885 73.9179 78.5497 69.0396 72.6193 69.0396C66.6889 69.0396 61.75 73.9179 61.75 79.7728C61.75 85.6277 66.6889 90.506 72.6193 90.506ZM72.6193 72.2077C76.8192 72.2077 80.2755 75.6234 80.2755 79.7728C80.2755 83.9222 76.8192 87.3332 72.6193 87.3332C68.4194 87.3332 64.9631 83.9175 64.9631 79.7728C64.9631 75.6281 68.4194 72.2077 72.6193 72.2077Z" fill="#24D7FF"/>
<path d="M126.713 29.5176C133.63 29.5176 139.065 24.1486 139.065 17.3218C139.065 10.4949 133.63 5.12598 126.713 5.12598C119.796 5.12598 114.361 10.4949 114.361 17.3218C114.361 24.1486 119.796 29.5176 126.713 29.5176ZM126.713 8.29408C131.9 8.29408 136.1 12.4434 136.1 17.5647C136.1 22.686 131.9 26.8354 126.713 26.8354C121.526 26.8354 117.326 22.686 117.326 17.5647C117.326 12.4434 121.526 8.29408 126.713 8.29408Z" fill="#24D7FF"/>
<path d="M20.2561 37.3255C25.4428 37.3255 29.6427 33.1761 29.6427 28.0548C29.6427 22.9336 25.4428 18.7842 20.2561 18.7842C15.0693 18.7842 10.8694 22.9289 10.8694 28.0548C10.8694 33.1808 15.0693 37.3255 20.2561 37.3255ZM20.2561 21.957C23.717 21.957 26.4297 24.6391 26.4297 28.0548C26.4297 31.4706 23.7123 34.1527 20.2561 34.1527C16.7998 34.1527 14.0825 31.4659 14.0825 28.0548C14.0825 24.6438 16.7998 21.957 20.2561 21.957Z" fill="#24D7FF"/>
<path d="M100.531 0C101.761 0 102.758 0.98127 102.758 2.19618C102.758 3.41108 101.761 4.39235 100.531 4.39235C99.3013 4.39235 98.3098 3.40641 98.3098 2.19618C98.3098 0.985943 99.306 0 100.531 0Z" fill="#24D7FF"/>
<path d="M133.63 58.792C134.86 58.792 135.852 59.7779 135.852 60.9882C135.852 62.1984 134.856 63.1843 133.63 63.1843C132.405 63.1843 131.409 62.2031 131.409 60.9882C131.409 59.7733 132.405 58.792 133.63 58.792Z" fill="#24D7FF"/>
<path d="M107.449 32.6904C108.679 32.6904 109.67 33.6764 109.67 34.8866C109.67 36.0968 108.674 37.0828 107.449 37.0828C106.223 37.0828 105.227 36.0968 105.227 34.8866C105.227 33.6764 106.223 32.6904 107.449 32.6904Z" fill="#24D7FF"/>
<path d="M42.4855 3.90186C43.7155 3.90186 44.707 4.8878 44.707 6.09803C44.707 7.30827 43.7108 8.29421 42.4855 8.29421C41.2601 8.29421 40.2639 7.31294 40.2639 6.09803C40.2639 4.88313 41.2601 3.90186 42.4855 3.90186Z" fill="#24D7FF"/>
<path d="M14.8214 58.792C16.0468 58.792 17.043 59.7779 17.043 60.9882C17.043 62.1984 16.0468 63.1843 14.8214 63.1843C13.596 63.1843 12.5999 62.2031 12.5999 60.9882C12.5999 59.7733 13.596 58.792 14.8214 58.792Z" fill="#24D7FF"/>
</g>
<defs>
<clipPath id="clip0_1255_22181">
<rect width="145" height="121" fill="white"/>
</clipPath>
</defs>
</svg>
