<svg width="145" height="121" fill="none" xmlns="http://www.w3.org/2000/svg"><g clip-path="url(#a)" fill="#24D7FF"><path d="M136.591 104.412h-5.435c.987-1.22 1.483-2.93 1.483-4.635 0-3.66-2.718-6.832-6.174-7.56 0-3.66-.743-8.538-3.704-13.66a25.698 25.698 0 0 0-10.373-10.246v-5.127c0-5.12-4.2-9.27-9.387-9.27H83.736c6.918-3.902 11.609-11.467 11.609-19.761 0-12.686-10.374-22.934-23.217-22.934-12.843 0-23.216 10.248-23.216 22.934 0 8.537 4.69 15.855 11.608 19.76H41.747c-5.187 0-9.387 4.15-9.387 9.272v5.126c-8.643 4.878-13.834 14.148-13.834 23.905-3.457.734-6.174 3.902-6.174 7.56 0 1.711.496 3.416 1.482 4.636H8.4c-4.691 0-8.4 3.659-8.4 8.294C0 117.341 3.704 121 8.4 121h128.19c4.691 0 8.4-3.659 8.4-8.294.248-4.635-3.705-8.294-8.4-8.294Zm-6.917-4.635a4.664 4.664 0 0 1-4.696 4.635h-12.352v-9.27h12.352a4.664 4.664 0 0 1 4.696 4.635Zm-9.387-19.518c2.469 4.392 3.213 8.784 3.213 11.952h-10.869V71.965c2.717 1.71 5.434 4.392 7.656 8.294ZM52.611 34.153c0-10.976 8.891-19.761 20.008-19.761 11.117 0 20.008 8.785 20.008 19.76 0 10.977-8.89 19.762-20.008 19.762-11.117 0-20.008-8.78-20.008-19.761ZM35.568 63.18c0-3.416 2.718-6.098 6.174-6.098h61.75c3.461 0 6.174 2.687 6.174 6.098v41.227H35.568V63.18Zm-2.965 8.785V92.21h-10.87c0-8.294 4.2-15.611 10.87-20.246ZM15.56 99.772a4.659 4.659 0 0 1 4.691-4.635h12.352v9.27H20.251a4.659 4.659 0 0 1-4.69-4.635Zm121.031 18.298H8.643c-2.965 0-5.435-2.439-5.435-5.364s2.47-5.369 5.435-5.369h128.196c2.965 0 5.434 2.439 5.434 5.369 0 2.93-2.717 5.364-5.682 5.364Z"/><path d="M72.62 90.506c5.925 0 10.868-4.878 10.868-10.733S78.55 69.04 72.62 69.04c-5.93 0-10.869 4.878-10.869 10.733s4.939 10.733 10.87 10.733Zm0-18.298c4.2 0 7.655 3.415 7.655 7.565s-3.456 7.56-7.656 7.56c-4.2 0-7.656-3.415-7.656-7.56s3.456-7.565 7.656-7.565Zm54.093-42.69c6.917 0 12.352-5.37 12.352-12.196 0-6.827-5.435-12.196-12.352-12.196-6.917 0-12.352 5.369-12.352 12.196s5.435 12.196 12.352 12.196Zm0-21.224c5.187 0 9.387 4.15 9.387 9.27 0 5.122-4.2 9.271-9.387 9.271s-9.387-4.149-9.387-9.27c0-5.122 4.2-9.27 9.387-9.27ZM20.256 37.325c5.187 0 9.387-4.149 9.387-9.27 0-5.121-4.2-9.27-9.387-9.27s-9.387 4.144-9.387 9.27c0 5.126 4.2 9.27 9.387 9.27Zm0-15.368c3.461 0 6.174 2.682 6.174 6.098s-2.718 6.098-6.174 6.098c-3.456 0-6.174-2.687-6.174-6.098s2.718-6.098 6.174-6.098ZM100.531 0c1.23 0 2.227.981 2.227 2.196 0 1.215-.997 2.196-2.227 2.196s-2.221-.986-2.221-2.196c0-1.21.996-2.196 2.22-2.196Zm33.099 58.792c1.23 0 2.222.986 2.222 2.196 0 1.21-.996 2.196-2.222 2.196-1.225 0-2.221-.98-2.221-2.196 0-1.215.996-2.196 2.221-2.196ZM107.449 32.69c1.23 0 2.221.986 2.221 2.197 0 1.21-.996 2.196-2.221 2.196-1.226 0-2.222-.986-2.222-2.196 0-1.21.996-2.197 2.222-2.197ZM42.486 3.902c1.23 0 2.221.986 2.221 2.196 0 1.21-.996 2.196-2.221 2.196-1.226 0-2.222-.981-2.222-2.196 0-1.215.996-2.196 2.221-2.196Zm-27.665 54.89c1.226 0 2.222.986 2.222 2.196 0 1.21-.996 2.196-2.222 2.196-1.225 0-2.221-.98-2.221-2.196 0-1.215.996-2.196 2.221-2.196Z"/></g><defs><clipPath id="a"><path fill="#fff" d="M0 0h145v121H0z"/></clipPath></defs></svg>